<?xml version="1.0" encoding="UTF-8"?>
<svg version="1.1" xmlns="http://www.w3.org/2000/svg" width="347" height="410">
<path d="M0 0 C4.62 0 9.24 0 14 0 C14 20.46 14 40.92 14 62 C33.25415149 60.47262616 33.25415149 60.47262616 52.36328125 58.375 C57.25771041 57.87031128 62.08689124 57.80899361 67 58 C66.67 58.99 66.34 59.98 66 61 C63.9375 61.6875 63.9375 61.6875 62 62 C62 62.66 62 63.32 62 64 C60.948125 64.598125 59.89625 65.19625 58.8125 65.8125 C55.85139522 67.50370009 52.91639064 69.23249052 50 71 C50.33 72.65 50.66 74.3 51 76 C79.3256368 77.02588483 107.66096901 77.50735447 136 78 C134.71034824 79.37562854 133.37310707 80.70766393 132 82 C131.34 82 130.68 82 130 82 C130 82.66 130 83.32 130 84 C129.42636719 84.29390625 128.85273438 84.5878125 128.26171875 84.890625 C118.50411803 90.0433489 109.28313906 96.04804803 100 102 C104.6643938 104.54488153 109.14999734 105.99978236 114.25 107.3125 C121.50352386 109.24707273 128.60565254 111.47473346 135.70849609 113.90063477 C140.70436317 115.59750113 145.71156027 117.09048159 150.8359375 118.359375 C153.05828523 119.01725411 154.93669145 119.95581551 157 121 C158.85174164 121.46293541 160.70432345 121.92298505 162.5625 122.359375 C167.45370982 123.64488527 172.21886127 125.3584757 177 127 C174.3113993 131.03290104 171.21492934 131.31566535 166.75 132.4375 C165.11576956 132.86935346 163.48165627 133.30165051 161.84765625 133.734375 C161.03184082 133.94642578 160.21602539 134.15847656 159.37548828 134.37695312 C155.96663899 135.27103158 152.57744554 136.22407964 149.1875 137.1875 C148.10855469 137.49042969 147.02960938 137.79335937 145.91796875 138.10546875 C143.00498039 138.94868123 143.00498039 138.94868123 140.30078125 140.11328125 C138 141 138 141 135 141 C135 141.99 135 142.98 135 144 C135.58265625 144.2578125 136.1653125 144.515625 136.765625 144.78125 C139.1802903 146.09834017 140.81740177 147.55088384 142.75 149.5 C143.36359375 150.1084375 143.9771875 150.716875 144.609375 151.34375 C146 153 146 153 146 155 C141.07386963 154.61654488 136.14840732 154.22560444 131.22338867 153.828125 C129.55264849 153.6942985 127.8817514 153.5624145 126.21069336 153.43261719 C112.24683237 152.3459354 99.78531658 150.66026969 86.625 145.5625 C85.57183594 145.16740234 84.51867187 144.77230469 83.43359375 144.36523438 C78.6745751 142.55270573 74.32239477 140.72062345 70 138 C71.40526214 134.72344492 73.02917473 132.84567314 75.75 130.5625 C76.40484375 130.00691406 77.0596875 129.45132813 77.734375 128.87890625 C78.48203125 128.25886719 79.2296875 127.63882813 80 127 C81.0887008 126.09263882 82.17723685 125.18507993 83.265625 124.27734375 C84.61914062 123.15005859 84.61914062 123.15005859 86 122 C71.2553635 117.29890544 56.426588 113.23902669 41.390625 109.578125 C35.56350772 108.15747874 29.7764679 106.61345731 24 105 C24.34514648 105.97791504 24.34514648 105.97791504 24.69726562 106.97558594 C26.08705695 110.91332803 27 113.75555424 27 118 C22 116 17 114 12 112 C12 111.34 12 110.68 12 110 C11.03513672 109.87818359 11.03513672 109.87818359 10.05078125 109.75390625 C5.81105439 108.70618886 2.10487549 106.84130436 -1.8125 104.9375 C-2.65272705 104.534104 -3.4929541 104.13070801 -4.35864258 103.71508789 C-11.60263151 100.22470908 -18.80024642 96.64325181 -25.97802734 93.01904297 C-29.647238 91.1698175 -33.32419102 89.33606393 -37 87.5 C-38.35419777 86.82297888 -39.70836747 86.14590161 -41.0625 85.46875 C-42.031875 84.9840625 -43.00125 84.499375 -44 84 C-44.33 84.33 -44.66 84.66 -45 85 C-44.43152344 85.31453125 -43.86304687 85.6290625 -43.27734375 85.953125 C-40.84965881 87.2986866 -38.42452425 88.64875241 -36 90 C-35.33484375 90.36867188 -34.6696875 90.73734375 -33.984375 91.1171875 C-31.4768671 92.52357237 -29.09133482 93.92954171 -26.8125 95.6875 C-24.86987765 97.09422653 -23.34340912 97.58153409 -21 98 C-21 98.66 -21 99.32 -21 100 C-19.6078125 100.2784375 -19.6078125 100.2784375 -18.1875 100.5625 C-13.59917924 101.8655831 -10.02200084 104.47140395 -6.07421875 107.078125 C-1.7698298 109.76905176 2.73626136 111.94402811 7.296875 114.1640625 C11.89063498 116.41170605 16.37556188 118.86144193 20.85058594 121.33569336 C24.58159726 123.36495695 27.8931795 124.63105983 32 126 C31.67 121.38 31.34 116.76 31 112 C37.71188929 112.87546382 44.51492713 113.81359221 50.9375 116 C54.70834107 117.23129504 58.4864322 117.82604985 62.390625 118.49609375 C65.36825753 119.0711156 68.13264105 120.02249127 71 121 C73.32694964 121.37531446 75.65976685 121.71917202 78 122 C78 122.99 78 123.98 78 125 C76.68 125.33 75.36 125.66 74 126 C74 126.66 74 127.32 74 128 C72.1015625 129.5078125 72.1015625 129.5078125 69.625 131.125 C68.81289062 131.66382813 68.00078125 132.20265625 67.1640625 132.7578125 C65 134 65 134 63 134 C63 134.66 63 135.32 63 136 C62.01 136.66 61.02 137.32 60 138 C63.16074782 140.88590018 66.4545237 141.93221121 70.44921875 143.1875 C73.11889013 144.03787006 75.74414189 144.97398115 78.375 145.9375 C79.29667969 146.27394531 80.21835938 146.61039063 81.16796875 146.95703125 C83.06854908 147.65696911 84.96697573 148.3627808 86.86328125 149.07421875 C94.17185961 151.79345468 101.26399587 153.83959938 109 155 C108.67 155.99 108.34 156.98 108 158 C107.34 158 106.68 158 106 158 C106 158.66 106 159.32 106 160 C101.52941176 164 101.52941176 164 99 164 C99 164.66 99 165.32 99 166 C97.21895282 167.60178593 95.37462722 169.13381926 93.5 170.625 C92.4790625 171.44226563 91.458125 172.25953125 90.40625 173.1015625 C89.6121875 173.72804687 88.818125 174.35453125 88 175 C89.59792513 180.3627336 91.21896358 185.71740685 92.875 191.0625 C93.99722044 194.6927131 95.10079575 198.32644989 96.15625 201.9765625 C96.5624395 203.38022584 96.96869068 204.78387134 97.375 206.1875 C97.57875244 206.89237549 97.78250488 207.59725098 97.99243164 208.32348633 C99.83836082 214.62456948 101.92223371 220.83751346 104.12060547 227.02416992 C106.57596342 234.12469059 106.57596342 234.12469059 106 238 C101.89189189 242 101.89189189 242 99 242 C99 242.66 99 243.32 99 244 C90.32492054 249.19551462 83.09476432 250.97013383 73 251 C73.25394531 251.81082031 73.50789062 252.62164062 73.76953125 253.45703125 C74.11371094 254.56433594 74.45789063 255.67164063 74.8125 256.8125 C75.19019531 258.00101562 75.56789062 259.18953125 75.95703125 260.4140625 C77 264 77 264 77.51171875 266.9609375 C78.9923835 275.22896944 83.73143055 278.94319351 90.23388672 283.69677734 C92.71885403 285.53044551 95.13167334 287.45080021 97.55151367 289.36914062 C99.82409773 291.16797808 102.11253873 292.94593225 104.40527344 294.71899414 C105.48671518 295.58769053 106.54203715 296.4897368 107.57128906 297.41967773 C110.74479657 300.27573323 112.68673145 301.65178097 117 301.4375 C117.85722656 301.39753906 118.71445312 301.35757812 119.59765625 301.31640625 C122.5475131 300.92788852 125.19225104 299.95874355 128 299 C128.99 299.66 129.98 300.32 131 301 C134.12521833 301.16699232 134.12521833 301.16699232 137 301 C137 300.34 137 299.68 137 299 C138.86120163 297.9338748 140.73970734 296.89792035 142.625 295.875 C144.19121094 295.00488281 144.19121094 295.00488281 145.7890625 294.1171875 C149.74960165 292.73918969 151.24141554 293.30657184 155 295 C156.04800781 295.42152344 156.04800781 295.42152344 157.1171875 295.8515625 C158.74479167 296.56770833 160.37239583 297.28385417 162 298 C162 298.66 162 299.32 162 300 C162.928125 300.268125 163.85625 300.53625 164.8125 300.8125 C167.85184289 301.94480421 168.90073617 302.69900511 171 305 C169.61019248 306.13243576 168.21285323 307.25563119 166.8125 308.375 C166.03519531 309.00148438 165.25789063 309.62796875 164.45703125 310.2734375 C160.88276278 312.78508562 157.61863952 313.85200649 153.375 314.8671875 C147.09306805 316.37284755 141.13278659 318.89151863 135.1328125 321.25390625 C127.25642643 324.23209655 121.24025435 325.46384305 113.25 321.875 C112.22003906 321.41738281 111.19007813 320.95976562 110.12890625 320.48828125 C107.12292663 319.05847072 104.15261313 317.57498705 101.1875 316.0625 C96.65728176 313.75879793 92.08621256 311.70819517 87.375 309.8125 C86.7348999 309.55299561 86.0947998 309.29349121 85.43530273 309.02612305 C81.89448375 307.62793947 78.47093258 306.63690524 74.75 305.875 C67.8431539 303.97126427 63.02572934 297.62579237 59 292 C58.01305527 288.79833241 58.01190364 286.64289083 58.125 283.25 C58.1936829 279.94073307 57.59016269 277.47310697 56.4375 274.375 C54.77582214 269.76010318 54.90769906 266.7450495 56.74609375 262.125 C60.09256476 253.41456829 60.56555146 244.0573438 57.0625 235.3125 C56.38600219 233.86978963 55.7002096 232.43135216 55 231 C54.67 230.01 54.34 229.02 54 228 C53.34 228 52.68 228 52 228 C51.0409375 226.88625 51.0409375 226.88625 50.0625 225.75 C44.71378664 220.27653531 36.955942 218.7570245 29.5625 218.4375 C20.48353876 218.75056763 11.99895968 222.13451094 5.3359375 228.375 C3.14501408 231.03998288 2.10660889 233.74526796 1 237 C0.67 236.01 0.34 235.02 0 234 C-1.07278198 233.79528076 -1.07278198 233.79528076 -2.16723633 233.58642578 C-16.32848738 230.65482835 -30.20647714 226.21305512 -43.58203125 220.76171875 C-48.493403 218.7670663 -53.48864893 217.03717974 -58.5 215.3125 C-64.48574853 213.25212196 -70.40762585 211.14209299 -76.22265625 208.62890625 C-78.15713926 207.83321067 -78.15713926 207.83321067 -81 208 C-81.29132813 208.94617188 -81.58265625 209.89234375 -81.8828125 210.8671875 C-82.29653294 212.20323097 -82.71062677 213.53915885 -83.125 214.875 C-83.34510742 215.58664307 -83.56521484 216.29828613 -83.79199219 217.03149414 C-85.01667912 220.95963051 -86.28494219 224.86618779 -87.6328125 228.75390625 C-87.90206543 229.53588379 -88.17131836 230.31786133 -88.44873047 231.12353516 C-88.96853169 232.6246552 -89.49576933 234.12322867 -90.03173828 235.61865234 C-91.71081815 240.4860848 -93.45303502 245.80239394 -93 251 C-92.01238126 252.01222982 -91.01285239 253.01301974 -90 254 C-90.144375 255.0725 -90.28875 256.145 -90.4375 257.25 C-90.41327696 261.04096562 -90.41327696 261.04096562 -87.92578125 262.87109375 C-86.17018687 264.0628476 -84.38751146 265.21583728 -82.578125 266.32421875 C-77.82655411 269.41273983 -77.82655411 269.41273983 -76 272 C-75.63608507 275.01896163 -75.89899836 277.91914251 -76.1875 280.9375 C-76.24486328 281.73607422 -76.30222656 282.53464844 -76.36132812 283.35742188 C-76.66536307 287.30333778 -77.10259588 291.13726051 -78 295 C-89.875 290.25 -89.875 290.25 -92.375 285.25 C-92.58125 284.5075 -92.7875 283.765 -93 283 C-93.66 283 -94.32 283 -95 283 C-96.5078125 281.5390625 -96.5078125 281.5390625 -98.125 279.625 C-98.66382813 278.99851562 -99.20265625 278.37203125 -99.7578125 277.7265625 C-101 276 -101 276 -101 274 C-101.99 273.67 -102.98 273.34 -104 273 C-105.24518045 271.55821211 -106.48531376 270.11069139 -107.66796875 268.6171875 C-109.14827273 266.76069959 -109.14827273 266.76069959 -111.6875 264.375 C-114.64481754 261.33775496 -115.8940593 259.42621903 -116.21118164 255.15698242 C-116.19434326 254.06748291 -116.17750488 252.9779834 -116.16015625 251.85546875 C-116.14895752 250.63206787 -116.13775879 249.40866699 -116.1262207 248.14819336 C-116.09467896 246.18765015 -116.09467896 246.18765015 -116.0625 244.1875 C-116.02876277 241.46357843 -116.00351768 238.73968719 -115.984375 236.015625 C-115.97692009 234.99395485 -115.97692009 234.99395485 -115.96931458 233.9516449 C-115.95283457 228.71941879 -116.23371399 223.54521047 -116.6081543 218.32910156 C-117.32178255 208.23087811 -116.92820659 201.08468853 -112 192 C-111.51015625 190.93910156 -111.0203125 189.87820312 -110.515625 188.78515625 C-108.86901864 185.75930487 -107.48913357 184.45335145 -104.15234375 183.4375 C-97.72806613 182.16850689 -91.28688599 181.41360154 -84.77319336 180.78515625 C-80.90735033 180.39579691 -77.17714731 179.85021292 -73.3828125 179.0078125 C-66.61357744 177.59526209 -59.76404445 177.29189654 -52.875 176.875 C-51.52339794 176.78837548 -50.17183489 176.70114 -48.8203125 176.61328125 C-45.54725418 176.40287036 -42.27367406 176.20060323 -39 176 C-38.505 182.435 -38.505 182.435 -38 189 C-36.44732014 178.40943931 -36.44732014 178.40943931 -38 168 C-38.66 168 -39.32 168 -40 168 C-40.41507812 167.14148438 -40.83015625 166.28296875 -41.2578125 165.3984375 C-42.98601771 162.02727487 -44.87392594 158.8407338 -46.875 155.625 C-47.22868652 155.05410645 -47.58237305 154.48321289 -47.94677734 153.89501953 C-49.42588656 151.51047114 -50.91538295 149.13296965 -52.421875 146.765625 C-54.73866429 143.12495611 -56.85129019 139.43809532 -58.875 135.625 C-60.96329416 131.7911061 -63.12388541 128.0386128 -65.5 124.375 C-66.0259375 123.55773437 -66.551875 122.74046875 -67.09375 121.8984375 C-69.73763075 119.26539232 -71.28117869 119.01340921 -75 119 C-77.69382228 120.02775176 -79.99331475 121.07080281 -82.5 122.4375 C-83.19633545 122.80222412 -83.8926709 123.16694824 -84.61010742 123.54272461 C-86.75196702 124.67453445 -88.8777256 125.83193034 -91 127 C-91.63631348 127.34836914 -92.27262695 127.69673828 -92.92822266 128.05566406 C-100.09766842 132.00636899 -107.06624653 136.22733498 -113.890625 140.75 C-116 142 -116 142 -118 142 C-118 142.66 -118 143.32 -118 144 C-118.66 144 -119.32 144 -120 144 C-120.14695312 145.01320312 -120.14695312 145.01320312 -120.296875 146.046875 C-121.4995656 153.22154648 -121.4995656 153.22154648 -123.6875 156.625 C-128.60182971 159.54703388 -133.68239547 157.98504994 -139 156.875 C-146.20017348 154.94895359 -150.48492652 151.66357678 -154.5 145.4375 C-156.15688719 141.64046686 -156.09913998 140.82684861 -155 137 C-154.24131448 135.30815772 -153.42638845 133.64061902 -152.5625 132 C-150.84519017 128.71916928 -149.32778584 125.45841892 -148 122 C-147.34 122 -146.68 122 -146 122 C-145.72309326 121.2673291 -145.44618652 120.5346582 -145.16088867 119.77978516 C-144.08143381 117.19499586 -142.87113916 114.91788864 -141.42578125 112.5234375 C-140.67627197 111.27771973 -140.67627197 111.27771973 -139.91162109 110.00683594 C-139.38391113 109.13833008 -138.85620117 108.26982422 -138.3125 107.375 C-137.77447754 106.48071289 -137.23645508 105.58642578 -136.68212891 104.66503906 C-133.83961932 99.95801417 -130.92329248 95.32566102 -127.875 90.75 C-125.92395146 87.75090621 -124.64418938 85.31902539 -123.9375 81.8125 C-122.71062165 76.82319471 -120.26076187 73.87409565 -117 70 C-116.49984375 69.36707031 -115.9996875 68.73414062 -115.484375 68.08203125 C-112.40735833 64.28434489 -109.47586443 61.14841493 -105 59 C-102.16281059 58.97944066 -99.80612096 59.41942325 -97 60 C-97.92039062 59.33291016 -97.92039062 59.33291016 -98.859375 58.65234375 C-102.05669206 54.69070454 -102.42837398 50.50235808 -103.25 45.5625 C-103.42273438 44.62083984 -103.59546875 43.67917969 -103.7734375 42.70898438 C-104.53853644 38.40682091 -105.09175178 34.38017144 -105 30 C-103.66666667 30.66666667 -102.33333333 31.33333333 -101 32 C-100.278125 32.28875 -99.55625 32.5775 -98.8125 32.875 C-97 34 -97 34 -96.4375 36.0625 C-96.293125 36.701875 -96.14875 37.34125 -96 38 C-95.01 38.33 -94.02 38.66 -93 39 C-89 43.45714286 -89 43.45714286 -89 46 C-88.46375 46.268125 -87.9275 46.53625 -87.375 46.8125 C-85.64330776 47.67834612 -83.94056816 48.60281596 -82.2578125 49.56030273 C-78.66952036 51.14604605 -76.39573763 51.32306479 -72.5 51.22265625 C-71.283125 51.20396484 -70.06625 51.18527344 -68.8125 51.16601562 C-67.554375 51.13185547 -66.29625 51.09769531 -65 51.0625 C-62.50020882 51.00231036 -60.00017869 50.95120791 -57.5 50.91015625 C-56.3965625 50.88058838 -55.293125 50.85102051 -54.15625 50.82055664 C-50.77749633 51.01265008 -48.15774624 51.82042555 -45 53 C-42.49584957 53.54225212 -39.98754043 53.99114609 -37.46484375 54.4375 C-34.82848924 55.03914033 -32.50223704 55.98200915 -30 57 C-20.14814944 59.82368 -9.9748863 61.7833586 0 64 C0 42.88 0 21.76 0 0 Z " fill="#FFEF22" transform="translate(166,34)"/>
<path d="M0 0 C5.19354209 3.78695777 7.39700896 8.90351813 9 15 C10.06720873 22.14436954 8.98206788 27.47865018 6.25 34.125 C4.30692637 38.86387612 4.30692637 38.86387612 4.55859375 43.828125 C5.29753573 45.49521901 6.08163549 47.14318764 6.9140625 48.765625 C8.73397166 52.51018629 8.6000391 54.86639729 8 59 C5.58229502 64.61730604 2.36267122 68.13990869 -3 71 C-3.66 71 -4.32 71 -5 71 C-4.67 71.66 -4.34 72.32 -4 73 C-3.42571367 79.54686419 -4.53555029 84.37295901 -8 90 C-13.17567483 95.41093278 -19.06256906 98.08506476 -26.51171875 98.3828125 C-33.01489267 98.30213537 -38.24475549 95.75637664 -44.0625 93.0625 C-55.91100788 87.58270066 -55.91100788 87.58270066 -68.75 87.75 C-74.89066845 90.11179556 -78.98886827 92.97773654 -82 99 C-82.41559013 102.65719314 -82.18617748 104.63540243 -80.5 107.9375 C-74.64746898 115.1068505 -67.84046193 120.02430303 -59.3125 123.5625 C-56.42900562 124.81382775 -54.438669 126.08200543 -52 128 C-66.49751609 126.17580923 -80.75192698 123.20117187 -95 120 C-89.74815169 122.71970716 -84.56932457 125.01095551 -79 127 C-79 127.66 -79 128.32 -79 129 C-92.14233697 129.28245225 -102.74517543 125.24317777 -114 119 C-114 118.34 -114 117.68 -114 117 C-114.5775 116.773125 -115.155 116.54625 -115.75 116.3125 C-120.94568827 113.28168184 -123.93358061 107.50111196 -126 102 C-126.58661011 98.66903908 -126.66848444 95.43957829 -126.625 92.0625 C-126.61662109 91.17804199 -126.60824219 90.29358398 -126.59960938 89.38232422 C-126.39707984 83.56606386 -125.73825098 79.23017737 -121.83203125 74.68359375 C-120.92517578 73.85021484 -120.92517578 73.85021484 -120 73 C-119.38511719 72.43410156 -118.77023438 71.86820312 -118.13671875 71.28515625 C-106.47799584 61.72920901 -91.95864025 59.78102024 -77.375 59.1875 C-65.69988026 58.52623795 -55.70102366 56.68595781 -45 52 C-43.8759375 51.52304687 -42.751875 51.04609375 -41.59375 50.5546875 C-34.71334065 47.37510439 -28.42416777 43.3331964 -23 38 C-22.67 37.01 -22.34 36.02 -22 35 C-21.34 35 -20.68 35 -20 35 C-19.04380267 31.00204108 -18.8960408 27.29196078 -18.9375 23.1875 C-18.94652344 22.02605469 -18.95554687 20.86460937 -18.96484375 19.66796875 C-18.97644531 18.78753906 -18.98804688 17.90710938 -19 17 C-22.52994613 15.82335129 -25.29455413 15.80149397 -29 16 C-29.99 16.66 -30.98 17.32 -32 18 C-31.505 22.455 -31.505 22.455 -31 27 C-36.28722766 25.67819308 -38.98958562 23.51562156 -42 19 C-42.70067191 14.26639094 -42.49217735 10.16332828 -40.625 5.75 C-28.87916226 -6.55516334 -14.54072345 -7.75505251 0 0 Z M-91 74 C-91 74.33 -91 74.66 -91 75 C-89.741875 75.02578125 -88.48375 75.0515625 -87.1875 75.078125 C-75.0838699 75.43697993 -64.20473103 76.86525284 -52.69091797 80.78637695 C-46.47805224 82.83192794 -40.90063914 83.48997224 -34.375 83.4375 C-33.04082031 83.4674707 -33.04082031 83.4674707 -31.6796875 83.49804688 C-25.70198017 83.4936515 -20.9432227 82.51657315 -16 79 C-15.67 78.34 -15.34 77.68 -15 77 C-15.70326416 77.16081055 -16.40652832 77.32162109 -17.13110352 77.48730469 C-30.01723683 79.79016231 -45.4869201 79.2506125 -58.10546875 75.75390625 C-65.52833082 73.82055621 -72.88241979 73.87252064 -80.5 73.9375 C-82.01980469 73.94426758 -82.01980469 73.94426758 -83.5703125 73.95117188 C-86.04693827 73.96285407 -88.52343657 73.97923418 -91 74 Z " fill="#FFFFFF" transform="translate(212,261)"/>
<path d="M0 0 C5.75144995 0.370649 9.87168171 1.22216093 15 4 C17.15670125 4.78696199 19.33405976 5.4846348 21.51953125 6.1875 C24.15905044 7.05209841 26.76605204 7.98473156 29.375 8.9375 C30.30699219 9.2778125 31.23898438 9.618125 32.19921875 9.96875 C33.9954476 10.63012296 35.78989705 11.29636077 37.58203125 11.96875 C43.13306712 14.03270337 48.72675664 15.91050291 54.375 17.6875 C55.05328857 17.90204834 55.73157715 18.11659668 56.43041992 18.33764648 C59.92993971 19.42514147 63.38959943 20.36574044 67 21 C62.76790414 25.50513431 58.11304141 29.514292 53 33 C52.34 33 51.68 33 51 33 C50.67 33.99 50.34 34.98 50 36 C48.13962035 37.54936526 46.21182173 39.01876795 44.25 40.4375 C39.67110236 43.76928538 39.67110236 43.76928538 35.234375 47.28515625 C33 49 33 49 31 49 C31 49.66 31 50.32 31 51 C29.35 51.66 27.7 52.32 26 53 C26 53.66 26 54.32 26 55 C24.3658023 56.33868274 22.6649573 57.59653746 20.9375 58.8125 C19.93976563 59.52019531 18.94203125 60.22789062 17.9140625 60.95703125 C16.47160156 61.96830078 16.47160156 61.96830078 15 63 C13.60324093 63.99870657 12.20721716 64.99844385 10.8125 66 C9.884375 66.66 8.95625 67.32 8 68 C8.00902344 67.19175781 8.01804687 66.38351562 8.02734375 65.55078125 C8.08766761 59.39200569 8.08766761 59.39200569 5.375 54.16015625 C3.64299652 53.01130717 1.82460627 51.99523979 0 51 C0 50.34 0 49.68 0 49 C-0.78375 48.690625 -1.5675 48.38125 -2.375 48.0625 C-5 47 -5 47 -7 46 C-6.67 43.69 -6.34 41.38 -6 39 C-6.66 39 -7.32 39 -8 39 C-9.7378554 32.7726848 -8.06934795 28.25842222 -6.05078125 22.23046875 C-4.93887088 18.81206773 -4.15573823 15.42999609 -3.4921875 11.90234375 C-2.9352636 9.74978869 -1.99697328 7.98207784 -1 6 C-0.61709538 4.00889599 -0.27395385 2.00899487 0 0 Z " fill="#FFFFFF" transform="translate(86,247)"/>
<path d="M0 0 C2.41587173 0.29361801 3.64677053 0.60667782 5.29272461 2.43945312 C5.65889893 3.04724609 6.02507324 3.65503906 6.40234375 4.28125 C7.02230225 5.29131104 7.02230225 5.29131104 7.65478516 6.32177734 C8.07808105 7.04059082 8.50137695 7.7594043 8.9375 8.5 C9.37626465 9.22525879 9.8150293 9.95051758 10.26708984 10.69775391 C11.52624909 12.79011842 12.76662661 14.89235643 14 17 C14.58136719 17.98742187 15.16273437 18.97484375 15.76171875 19.9921875 C19 25.65222063 19 25.65222063 19 28 C19.66 28 20.32 28 21 28 C21.495 30.475 21.495 30.475 22 33 C22.66 33 23.32 33 24 33 C25.31582063 35.26896632 26.62775236 37.54003187 27.9375 39.8125 C28.31068359 40.45509766 28.68386719 41.09769531 29.06835938 41.75976562 C30.63466635 44.48316424 32.00369374 47.01108122 33 50 C6.04627767 53.52313883 6.04627767 53.52313883 3 52 C3 51.34 3 50.68 3 50 C2.4225 49.72929687 1.845 49.45859375 1.25 49.1796875 C-3.98731598 46.43373364 -9.15055437 42.4910199 -13 38 C-13 37.34 -13 36.68 -13 36 C-13.53109375 35.773125 -14.0621875 35.54625 -14.609375 35.3125 C-17.78994062 33.56630711 -20.47998907 31.31938714 -23.25 29 C-23.80429688 28.54882812 -24.35859375 28.09765625 -24.9296875 27.6328125 C-26.32731582 26.46926971 -27.66885563 25.23905262 -29 24 C-29 23.34 -29 22.68 -29 22 C-30.32 21.34 -31.64 20.68 -33 20 C-30.30661765 17.10939056 -27.80839152 15.14002257 -24.3125 13.3125 C-23.36246094 12.80976563 -22.41242188 12.30703125 -21.43359375 11.7890625 C-20.30050781 11.19867188 -19.16742188 10.60828125 -18 10 C-15.73338406 8.8079089 -13.46823676 7.61308209 -11.20385742 6.41674805 C-9.66241524 5.60312383 -8.11962464 4.79204869 -6.57543945 3.98364258 C-3.06624693 2.31195514 -3.06624693 2.31195514 0 0 Z " fill="#FFFFFF" transform="translate(91,156)"/>
<path d="M0 0 C2.67602083 0.9939506 4.88489703 1.91449493 7.1875 3.625 C11.37842575 5.67389704 15.41479587 5.24038934 20 5 C20.12117188 5.80824219 20.24234375 6.61648437 20.3671875 7.44921875 C20.61855469 9.05216797 20.61855469 9.05216797 20.875 10.6875 C21.11863281 12.27111328 21.11863281 12.27111328 21.3671875 13.88671875 C21.96762245 16.84071044 22.61937719 19.32081937 24 22 C24.99 22.33 25.98 22.66 27 23 C27 23.66 27 24.32 27 25 C26.484375 24.731875 25.96875 24.46375 25.4375 24.1875 C24.633125 23.795625 23.82875 23.40375 23 23 C21.9275 22.46375 20.855 21.9275 19.75 21.375 C15.41373067 19.78503458 12.56527834 19.75972219 8 20 C7.12084715 29.49485081 11.64544475 36.46395927 17 44 C14.40770058 42.75569628 11.92034421 41.38407237 9.4375 39.9375 C4.87627293 37.36662656 1.97104157 36.88203181 -3.1875 36.9375 C-4.27417969 36.94652344 -5.36085938 36.95554688 -6.48046875 36.96484375 C-7.31191406 36.97644531 -8.14335937 36.98804688 -9 37 C-11.4547663 47.89302547 -11.19917921 55.51737744 -7 66 C-6.34 66.99 -5.68 67.98 -5 69 C-5.495 70.485 -5.495 70.485 -6 72 C-9 68.25 -9 68.25 -9 66 C-10.485 65.505 -10.485 65.505 -12 65 C-12.680625 64.2575 -13.36125 63.515 -14.0625 62.75 C-20.03070285 56.58464931 -27.66821925 54.40315068 -36 54 C-35.52500754 51.53788311 -35.02678639 49.10282517 -34.39453125 46.67578125 C-32.02573914 37.05753141 -34.70566471 29.09236541 -38 20 C-37.2575 20.763125 -36.515 21.52625 -35.75 22.3125 C-33.176446 24.95571199 -33.176446 24.95571199 -30.6875 26.6875 C-29.8521875 27.3371875 -29.8521875 27.3371875 -29 28 C-29 28.66 -29 29.32 -29 30 C-28.401875 30.12375 -27.80375 30.2475 -27.1875 30.375 C-25 31 -25 31 -22 33 C-19.95130926 33.44429438 -17.88545707 33.81294195 -15.8125 34.125 C-14.72582031 34.29257813 -13.63914062 34.46015625 -12.51953125 34.6328125 C-11.27236328 34.81457031 -11.27236328 34.81457031 -10 35 C-8.51032225 28.43187538 -10.09365766 23.93904738 -13 18 C-14.55015416 15.95940158 -15.99081186 14.61851267 -18 13 C-17.67 12.34 -17.34 11.68 -17 11 C-16.48050781 11.42152344 -15.96101563 11.84304687 -15.42578125 12.27734375 C-8.15352975 17.99029548 -3.06410066 18.15840176 6 18 C6.4283382 11.78909611 5.88777784 9.10270842 2 4 C2 3.34 2 2.68 2 2 C1.34 2 0.68 2 0 2 C0 1.34 0 0.68 0 0 Z " fill="#FFFFFF" transform="translate(302,190)"/>
<path d="M0 0 C2.45070609 2.45070609 2.83613339 4.24285351 3.8125 7.5625 C4.16183594 8.73554688 4.51117188 9.90859375 4.87109375 11.1171875 C5.63807168 13.74625096 6.39865142 16.37715946 7.16015625 19.0078125 C7.56481487 20.40112572 7.96976793 21.79435345 8.375 23.1875 C8.57867187 23.89100586 8.78234375 24.59451172 8.9921875 25.31933594 C10.84669626 31.64798929 12.9342868 37.89062986 15.12060547 44.11206055 C16.33162643 47.63007247 17 50.23681323 17 54 C10.30205526 55.66144792 10.30205526 55.66144792 7.01708984 53.99267578 C4.97684649 52.43708794 3.08073314 50.79399026 1.1875 49.0625 C-0.20759628 47.85311247 -1.60473922 46.64608191 -3.00390625 45.44140625 C-3.6808252 44.8498877 -4.35774414 44.25836914 -5.05517578 43.64892578 C-8.44939929 40.77112191 -12.09281899 38.29062057 -15.765625 35.78125 C-23.2289334 29.83147967 -25.94378764 21.18904755 -27 12 C-25.26731168 10.26731168 -22.73625783 10.50096723 -20.375 10.1875 C-14.99348843 9.34824046 -11.5227215 7.94960098 -7 5 C-6.34 5 -5.68 5 -5 5 C-5 4.34 -5 3.68 -5 3 C-2.5 1.375 -2.5 1.375 0 0 Z " fill="#FFFFFF" transform="translate(271,277)"/>
<path d="M0 0 C1.12085999 0.00022659 2.24171997 0.00045319 3.39654541 0.00068665 C4.60083191 0.0161705 5.80511841 0.03165436 7.04589844 0.04760742 C8.28321716 0.05185226 9.52053589 0.05609711 10.79534912 0.06047058 C14.07689884 0.07441363 17.358004 0.10134532 20.6394043 0.13458252 C23.99100651 0.16533023 27.34262783 0.17873014 30.69433594 0.1940918 C37.26482221 0.22717621 43.83501146 0.27738772 50.40527344 0.34057617 C47.86602958 3.56285078 45.37434276 6.45311834 42.28027344 9.15307617 C41.59707031 9.75764648 40.91386719 10.3622168 40.20996094 10.98510742 C38.40527344 12.34057617 38.40527344 12.34057617 36.40527344 12.34057617 C36.40527344 13.00057617 36.40527344 13.66057617 36.40527344 14.34057617 C34.79589844 15.70776367 34.79589844 15.70776367 32.65527344 17.21557617 C30.2483652 18.9426384 28.29338804 20.46233381 26.28027344 22.65307617 C23.59573543 25.06916038 22.04213291 25.13275563 18.40527344 25.34057617 C14.73520172 24.58654049 11.21415881 23.44026319 7.65527344 22.27807617 C6.64843506 21.9602417 5.64159668 21.64240723 4.60424805 21.31494141 C1.53242813 20.33964888 -1.53202533 19.34410589 -4.59472656 18.34057617 C-5.52849121 18.03539062 -6.46225586 17.73020508 -7.42431641 17.41577148 C-12.49131226 15.7535238 -17.54716879 14.06090485 -22.59472656 12.34057617 C-19.95689171 9.51689386 -17.52046935 7.55547354 -14.09472656 5.77807617 C-11.78045077 4.56942186 -9.77900714 3.50091713 -7.8057251 1.78398132 C-5.01089666 -0.04056523 -3.32031326 -0.02243455 0 0 Z " fill="#FFFFFF" transform="translate(296.5947265625,123.659423828125)"/>
<path d="M0 0 C1.43229167 1.20442708 2.86458333 2.40885417 4.296875 3.61328125 C4.85890625 4.07089844 5.4209375 4.52851562 6 5 C6.56847656 5.51304688 7.13695312 6.02609375 7.72265625 6.5546875 C10.85398909 8.54198278 14.09107089 9.1641826 17.6875 9.8125 C18.40284912 9.94213135 19.11819824 10.0717627 19.85522461 10.20532227 C27.05504533 11.3738539 32.36744301 10.65839936 38.6875 6.9375 C44.81752476 3.35201382 51.09406441 3.87716715 58 4 C56.63760782 6.84223197 55.44766831 8.96027641 53 11 C52.34 11 51.68 11 51 11 C51 11.66 51 12.32 51 13 C49.42578125 14.55078125 49.42578125 14.55078125 47.3125 16.3125 C44.8454381 18.38345423 42.73901119 20.30219757 40.625 22.75 C35.53421317 27.11353156 29.42404991 28.35072187 22.8125 27.9375 C18.12045723 27.28520969 14.90494714 25.63159481 11 23 C11 22.34 11 21.68 11 21 C10.39414063 20.76410156 9.78828125 20.52820313 9.1640625 20.28515625 C4.53452406 17.53584552 2.66594019 11.32566805 1.23828125 6.33984375 C0.76871566 4.23845446 0.37614752 2.12010421 0 0 Z " fill="#FFEF23" transform="translate(3,83)"/>
<path d="M0 0 C0.33 0 0.66 0 1 0 C1 17.16 1 34.32 1 52 C-18 47 -18 47 -21 46 C-19.03987997 39.19723048 -16.1901721 33.37727939 -12.71875 27.2109375 C-10.93153678 23.87209825 -9.47084456 20.48906671 -8 17 C-6.62903169 14.00904384 -5.2214123 11.03573807 -3.8125 8.0625 C-3.44447266 7.28326172 -3.07644531 6.50402344 -2.69726562 5.70117188 C-1.79928717 3.80025645 -0.89980044 1.90005366 0 0 Z " fill="#FFFFFF" transform="translate(160,42)"/>
<path d="M0 0 C2.81792204 2.81792204 3.57240398 3.94956128 4.875 7.5 C6.21895282 11.02661303 7.64465458 14.45960069 9.25 17.875 C11.73733973 23.29273686 14.0109233 28.78871177 16.25 34.3125 C16.78028809 35.60293213 16.78028809 35.60293213 17.32128906 36.91943359 C17.81967285 38.16007568 17.81967285 38.16007568 18.328125 39.42578125 C18.6262207 40.16223877 18.92431641 40.89869629 19.23144531 41.6574707 C20 44 20 44 21 50 C14.07 50 7.14 50 0 50 C0 33.5 0 17 0 0 Z " fill="#FFFFFF" transform="translate(184,42)"/>
<path d="M0 0 C1.093125 0.00257813 2.18625 0.00515625 3.3125 0.0078125 C4.405625 0.00523437 5.49875 0.00265625 6.625 0 C9.3125 0.1328125 9.3125 0.1328125 10.3125 1.1328125 C10.4008967 3.5084977 10.42780305 5.85489924 10.41015625 8.23046875 C10.4087413 8.93932724 10.40732635 9.64818573 10.40586853 10.37852478 C10.40025443 12.65082962 10.38769963 14.92303725 10.375 17.1953125 C10.36998681 18.73242046 10.36542359 20.26952995 10.36132812 21.80664062 C10.3511297 25.58209917 10.33155732 29.35734654 10.3125 33.1328125 C5.6925 33.1328125 1.0725 33.1328125 -3.6875 33.1328125 C-3.71041161 28.59376884 -3.73033781 24.05492448 -3.74243164 19.51586914 C-3.7474714 17.97061484 -3.7543032 16.42536534 -3.76293945 14.88012695 C-3.77502076 12.66356221 -3.78073173 10.44706032 -3.78515625 8.23046875 C-3.79031754 7.5356691 -3.79547882 6.84086945 -3.80079651 6.12501526 C-3.80099277 4.4605192 -3.74939129 2.79615751 -3.6875 1.1328125 C-2.6875 0.1328125 -2.6875 0.1328125 0 0 Z " fill="#FFEF23" transform="translate(169.6875,376.8671875)"/>
<path d="M0 0 C4.62 0 9.24 0 14 0 C14 10.56 14 21.12 14 32 C9.38 32 4.76 32 0 32 C0 21.44 0 10.88 0 0 Z " fill="#FFEF23" transform="translate(166,0)"/>
<path d="M0 0 C10.89 0 21.78 0 33 0 C31.40377998 3.99055004 29.73855348 7.4726298 27.625 11.1875 C27.03976563 12.23292969 26.45453125 13.27835938 25.8515625 14.35546875 C24.01302482 16.98139704 22.96552412 17.93528539 20 19 C17.95880212 17.38405168 15.95927063 15.7143618 14 14 C14 13.34 14 12.68 14 12 C13.44828125 11.76410156 12.8965625 11.52820313 12.328125 11.28515625 C9.4195091 9.67956123 7.20458728 7.67318403 4.75 5.4375 C3.85796875 4.63183594 2.9659375 3.82617188 2.046875 2.99609375 C1.37140625 2.33738281 0.6959375 1.67867188 0 1 C0 0.67 0 0.34 0 0 Z " fill="#FFFFFF" transform="translate(0,124)"/>
<path d="M0 0 C4.22488728 1.50888831 5.65504658 4.32623964 8 8 C8.66 8.33 9.32 8.66 10 9 C10 9.66 10 10.32 10 11 C11.32 11.66 12.64 12.32 14 13 C9.76790414 17.50513431 5.11304141 21.514292 0 25 C-0.66 25 -1.32 25 -2 25 C-2 25.66 -2 26.32 -2 27 C-6.38461538 30 -6.38461538 30 -9 30 C-7.33997437 24.42885339 -5.65386189 18.86656993 -3.9375 13.3125 C-2.57254992 8.88817905 -1.24453774 4.45959358 0 0 Z " fill="#FFFFFF" transform="translate(63,315)"/>
<path d="M0 0 C3 4 3 4 3 6 C3.515625 6.2475 4.03125 6.495 4.5625 6.75 C7.77184151 8.39581616 10.87585664 10.1976096 14 12 C14.4704718 16.09702525 14.69141134 19.92067309 14 24 C10.41173314 28.20416341 5.09379434 29.30206855 0 31 C0 20.77 0 10.54 0 0 Z " fill="#FFEF22" transform="translate(166,279)"/>
<path d="M0 0 C0 0.33 0 0.66 0 1 C-0.99628418 1.06731323 -0.99628418 1.06731323 -2.01269531 1.13598633 C-23.25906698 2.45844695 -23.25906698 2.45844695 -43.2578125 9.23046875 C-45 10 -45 10 -47 10 C-47 8 -47 8 -45.3125 5.9375 C-42.78664577 3.82124375 -41.22928839 3.35880982 -38 3 C-38 2.34 -38 1.68 -38 1 C-23.96006024 -4.30524039 -14.41551832 -5.63538587 0 0 Z " fill="#FFFFFF" transform="translate(149,316)"/>
<path d="M0 0 C4.62 1.65 9.24 3.3 14 5 C14 8.63 14 12.26 14 16 C9.38 16 4.76 16 0 16 C0 10.72 0 5.44 0 0 Z " fill="#FFEF22" transform="translate(166,358)"/>
<path d="M0 0 C0.66 0 1.32 0 2 0 C0.52307692 5.66153846 0.52307692 5.66153846 -2.125 7.375 C-2.74375 7.58125 -3.3625 7.7875 -4 8 C-4 8.66 -4 9.32 -4 10 C-8.71766861 12.58710859 -12.9212587 12.21750648 -18 11 C-21.78442143 9.39889862 -25.45604202 7.29218092 -28 4 C-28 3.34 -28 2.68 -28 2 C-27.360625 2.309375 -26.72125 2.61875 -26.0625 2.9375 C-16.92190797 6.10872581 -9.95380557 4.43762178 -1 1 C-0.67 0.67 -0.34 0.34 0 0 Z " fill="#FFEF22" transform="translate(36,110)"/>
<path d="M0 0 C2.7019433 0.36512747 4.58390852 0.69869237 6.8125 2.3125 C8 4 8 4 8 8 C6.0625 7.1875 6.0625 7.1875 4 6 C3.67 5.01 3.34 4.02 3 3 C2.01 2.67 1.02 2.34 0 2 C0 1.34 0 0.68 0 0 Z " fill="#FFEF21" transform="translate(185,277)"/>
<path d="M0 0 C0.66 0 1.32 0 2 0 C2 0.66 2 1.32 2 2 C1.34 2 0.68 2 0 2 C0 1.34 0 0.68 0 0 Z " fill="#FFFFFF" transform="translate(262,208)"/>
</svg>
